#!OML:ASF H:\Not Pregnant\Project 1\Capture day 1\Session 1\non-pregnant.ASF
:FULLY-SPECIFIED
:DEGREES
703
root 6.68063 15.8002 32.9306 12.6762 -13.3393 -3.84562
lowerback -6.4852 2.36171 2.78008
upperback -8.55891 3.00725 -0.937422
thorax -5.08199 1.30256 -2.46387
lowerneck 26.0114 -11.1102 -29.4561
upperneck -17.4652 -20.3495 44.4516
head -0.219256 -13.545 24.1559
rclavicle 1.77912e-014 -4.77083e-015
rhumerus -39.8138 -12.8038 -82.3493
rradius 24.064
rwrist 31.5863
rhand -5.15383 0.372016
rfingers 7.12502
rthumb 20.6456 -28.55
lclavicle 1.77912e-014 -4.77083e-015
lhumerus -48.6705 -0.792564 84.528
lradius 30.2523
lwrist 31.7307
lhand -16.6626 -10.9324
lfingers 7.12502
lthumb 9.56085 18.8307
rfemur -15.1979 4.47227 21.4091
rtibia 50.8561
rfoot 2.35922 15.1816
rtoes -22.6285
lfemur -32.0664 1.8257 -19.6824
ltibia 29.2363
lfoot -9.36091 -11.3765
ltoes -17.421
704
root 6.68665 15.8075 32.9865 12.7555 -13.4987 -3.75282
lowerback -6.4053 2.26892 2.56477
upperback -8.58185 2.89149 -0.918665
thorax -5.16813 1.25517 -2.33136
lowerneck 26.3598 -11.1918 -29.3728
upperneck -18.0638 -20.4013 44.5869
head -0.40215 -13.6239 24.3265
rclavicle 1.80894e-014 -1.59028e-015
rhumerus -39.6417 -12.4049 -82.653
rradius 24.3636
rwrist 31.0767
rhand -5.35616 0.303366
rfingers 7.12502
rthumb 20.4512 -28.6396
lclavicle 1.80894e-014 -1.59028e-015
lhumerus -48.5505 -1.03754 84.6194
lradius 30.3799
lwrist 31.8812
lhand -16.6784 -11.0461
lfingers 7.12502
lthumb 9.54563 18.7176
rfemur -15.8882 4.28146 21.2301
rtibia 51.6197
rfoot 1.14089 14.2078
rtoes -23.9189
lfemur -31.8635 1.92539 -19.8791
ltibia 29.0777
lfoot -9.45785 -11.339
ltoes -17.0339
705
root 6.69183 15.8137 33.0399 12.8289 -13.6403 -3.66433
lowerback -6.32041 2.17298 2.34922
upperback -8.59445 2.77114 -0.90167
thorax -5.24544 1.20597 -2.20014
lowerneck 26.7215 -11.2782 -29.2865
upperneck -18.6757 -20.4617 44.747
head -0.582807 -13.712 24.5217
rclavicle 1.39149e-014 -1.43125e-014
rhumerus -39.4572 -12.0217 -82.9593
rradius 24.6657
rwrist 30.5272
rhand -5.63418 0.219872
rfingers 7.12502
rthumb 20.184 -28.7515
lclavicle 1.39149e-014 -1.43125e-014
lhumerus -48.3766 -1.26532 84.6844
lradius 30.4649
lwrist 32.0139
lhand -16.6712 -11.095
lfingers 7.12502
lthumb 9.55263 18.6685
rfemur -16.5783 4.06772 21.0883
rtibia 52.3239
rfoot -0.322834 12.9866
rtoes -24.5777
lfemur -31.6811 2.02463 -20.0688
ltibia 28.9463
lfoot -9.56819 -11.3123
ltoes -16.6841
706
root 6.69641 15.8188 33.092 12.8906 -13.773 -3.58017
lowerback -6.23332 2.07741 2.13835
upperback -8.58875 2.65064 -0.888057
thorax -5.30328 1.15705 -2.07422
lowerneck 27.0758 -11.3807 -29.188
upperneck -19.3031 -20.5372 44.931
head -0.756193 -13.8114 24.731
rclavicle 3.8763e-015 -3.18055e-015
rhumerus -39.2454 -11.674 -83.2605
rradius 24.9568
rwrist 29.969
rhand -5.98424 0.136029
rfingers 7.12502
rthumb 19.8475 -28.8706
lclavicle 3.8763e-015 -3.18055e-015
lhumerus -48.1371 -1.46838 84.7176
lradius 30.5078
lwrist 32.1104
lhand -16.648 -11.0862
lfingers 7.12502
lthumb 9.57502 18.6763
rfemur -17.2537 3.83849 20.9768
rtibia 52.9542
rfoot -1.87338 11.5729
rtoes -24.6853
lfemur -31.5061 2.11831 -20.2513
ltibia 28.8447
lfoot -9.70813 -11.2762
ltoes -16.4578
707
root 6.70044 15.8229 33.1422 12.9451 -13.8981 -3.49984
lowerback -6.13579 1.98091 1.92779
upperback -8.57568 2.52873 -0.874177
thorax -5.35842 1.10768 -1.94803
lowerneck 27.4387 -11.493 -29.0832
upperneck -19.9427 -20.6253 45.131
head -0.926617 -13.9209 24.9549
rclavicle -1.54058e-014 -2.22639e-014
rhumerus -39.0247 -11.3464 -83.5532
rradius 25.2395
rwrist 29.4064
rhand -6.39137 0.059963
rfingers 7.12502
rthumb 19.4561 -28.9866
lclavicle -1.54058e-014 -2.22639e-014
lhumerus -47.851 -1.6398 84.721
lradius 30.5121
lwrist 32.1658
lhand -16.6147 -11.0381
lfingers 7.12502
lthumb 9.6071 18.7228
rfemur -17.9233 3.6074 20.8907
rtibia 53.5043
rfoot -3.38958 10.0368
rtoes -24.4861
lfemur -31.3453 2.19207 -20.422
ltibia 28.7752
lfoot -9.87248 -11.2149
ltoes -16.3607
708
root 6.70416 15.8259 33.1914 12.9945 -14.0254 -3.42839
lowerback -6.03034 1.88631 1.72281
upperback -8.5621 2.40911 -0.855561
thorax -5.41663 1.05937 -1.81985
lowerneck 27.8239 -11.6128 -28.9736
upperneck -20.5939 -20.7266 45.3379
head -1.09794 -14.0402 25.1903
rclavicle 2.32578e-014 1.27222e-014
rhumerus -38.8115 -11.0324 -83.8301
rradius 25.5192
rwrist 28.851
rhand -6.825 -0.0108804
rfingers 7.12502
rthumb 19.0391 -29.099
lclavicle 2.32578e-014 1.27222e-014
lhumerus -47.5389 -1.76786 84.6971
lradius 30.4844
lwrist 32.169
lhand -16.5793 -10.9922
lfingers 7.12502
lthumb 9.64124 18.7672
rfemur -18.5822 3.39015 20.8249
rtibia 53.9622
rfoot -4.80171 8.47317
rtoes -24.2045
lfemur -31.1962 2.24228 -20.5753
ltibia 28.74
lfoot -10.0523 -11.1179
ltoes -16.3257
709
root 6.70721 15.8276 33.2385 13.0512 -14.1528 -3.38197
lowerback -5.91337 1.79722 1.5335
upperback -8.55554 2.29662 -0.827414
thorax -5.48773 1.01395 -1.69055
lowerneck 28.2422 -11.7398 -28.8604
upperneck -21.2584 -20.843 45.5459
head -1.27306 -14.1701 25.4352
rclavicle -5.86415e-014 -3.26007e-014
rhumerus -38.6138 -10.7294 -84.089
rradius 25.8
rwrist 28.2986
rhand -7.27046 -0.0863011
rfingers 7.12502
rthumb 18.6107 -29.216
lclavicle -5.86415e-014 -3.26007e-014
lhumerus -47.2041 -1.86611 84.6573
lradius 30.4226
lwrist 32.1233
lhand -16.5514 -10.9416
lfingers 7.12502
lthumb 9.66816 18.8165
rfemur -19.2443 3.20629 20.798
rtibia 54.3271
rfoot -6.10203 6.95535
rtoes -23.9921
lfemur -31.0765 2.26404 -20.6884
ltibia 28.7455
lfoot -10.2405 -10.9787
ltoes -16.3738
710
root 6.71051 15.8284 33.2854 13.1102 -14.2772 -3.35138
lowerback -5.81115 1.70794 1.37059
upperback -8.53907 2.18283 -0.795347
thorax -5.53856 0.966918 -1.57076
lowerneck 28.6578 -11.8796 -28.7384
upperneck -21.9286 -20.973 45.7581
head -1.44362 -14.308 25.6814
rclavicle -4.17448e-015 -1.59028e-015
rhumerus -38.4056 -10.4268 -84.3463
rradius 26.0803
rwrist 27.7625
rhand -7.70598 -0.176111
rfingers 7.12502
rthumb 18.1917 -29.3454
lclavicle -4.17448e-015 -1.59028e-015
lhumerus -46.831 -1.92053 84.5921
lradius 30.3339
lwrist 32.0362
lhand -16.5288 -10.904
lfingers 7.12502
lthumb 9.69 18.8531
rfemur -19.887 3.03506 20.7865
rtibia 54.5875
rfoot -7.31281 5.59258
rtoes -23.8563
lfemur -30.9737 2.25377 -20.7796
ltibia 28.7932
lfoot -10.4334 -10.7995
ltoes -16.3574
711
root 6.71341 15.8283 33.3301 13.1839 -14.4031 -3.35373
lowerback -5.70932 1.62381 1.2359
upperback -8.52328 2.07544 -0.753947
thorax -5.58853 0.921851 -1.45659
lowerneck 29.084 -12.0309 -28.6079
upperneck -22.6049 -21.1178 45.9716
head -1.61239 -14.4551 25.9294
rclavicle 3.18055e-015 2.38542e-015
rhumerus -38.1968 -10.13 -84.5956
rradius 26.358
rwrist 27.2485
rhand -8.12429 -0.272541
rfingers 7.12502
rthumb 17.7892 -29.4789
lclavicle 3.18055e-015 2.38542e-015
lhumerus -46.4333 -1.9522 84.515
lradius 30.2287
lwrist 31.9199
lhand -16.516 -10.868
lfingers 7.12502
lthumb 9.7023 18.8885
rfemur -20.5349 2.90165 20.8164
rtibia 54.7464
rfoot -8.44638 4.42338
rtoes -23.7604
lfemur -30.9103 2.21589 -20.8228
ltibia 28.8845
lfoot -10.6082 -10.5848
ltoes -16.2524
